<svg xmlns="http://www.w3.org/2000/svg" viewBox="0 0 32 32" role="img" aria-label="WhatsApp">
  <circle cx="16" cy="16" r="16" fill="#25D366"/>
  <path fill="#fff" d="M23.13 8.83A9.63 9.63 0 0 0 16.26 6C10.95 6 6.62 10.33 6.62 15.66c0 1.72.45 3.4 1.31 4.89L6.5 26l5.2-1.37a9.57 9.57 0 0 0 4.56 1.17h.01c5.31 0 9.64-4.33 9.64-9.66 0-2.58-1-5-2.78-6.97ZM16.27 24.1h-.01a7.9 7.9 0 0 1-4.04-1.11l-.29-.17-3.04.8.81-2.96-.2-.3a7.93 7.93 0 0 1-1.2-4.2c0-4.38 3.57-7.95 7.96-7.95 2.13 0 4.14.83 5.64 2.33a7.93 7.93 0 0 1 2.32 5.63c0 4.39-3.57 7.93-7.95 7.93Zm4.39-5.97c-.24-.12-1.43-.71-1.66-.79-.22-.08-.38-.12-.54.12-.16.24-.62.79-.77.95-.14.16-.28.18-.52.06-.24-.12-1.03-.38-1.95-1.22a7.23 7.23 0 0 1-1.36-1.68c-.14-.24-.02-.37.1-.49.1-.1.24-.28.36-.42.12-.14.16-.24.24-.4.08-.16.04-.3-.02-.42-.06-.12-.54-1.3-.74-1.79-.2-.47-.4-.4-.54-.41h-.46c-.16 0-.42.06-.64.3-.22.24-.84.82-.84 2.01 0 1.19.87 2.34.99 2.5.12.16 1.69 2.62 4.11 3.66.57.25 1.03.4 1.38.5.58.19 1.11.17 1.53.1.47-.07 1.43-.58 1.63-1.15.2-.57.2-1.05.14-1.15-.06-.1-.22-.15-.46-.27Z"/>
</svg>
